<svg width="60" height="60" viewBox="0 0 60 60" fill="none" xmlns="http://www.w3.org/2000/svg">
<circle cx="30" cy="30" r="29.5" fill="#E4EDF6" stroke="#E0E8F1"/>
<g opacity="0.5">
<path d="M24.0419 28.4586C25.3748 28.4586 26.4585 27.3747 26.4585 26.0418C26.4585 24.7089 25.3748 23.625 24.0419 23.625C22.7091 23.625 21.6251 24.7089 21.6251 26.0418C21.6251 27.3747 22.7091 28.4586 24.0419 28.4586Z" fill="#9AA5B1"/>
<path d="M39.1463 20H21.0208C19.3559 20 18 21.3559 18 23.0211V36.3129C18 37.9781 19.3559 39.334 21.0208 39.334H39.1463C40.8115 39.334 42.1673 37.9781 42.1673 36.3129V23.0211C42.1673 21.3559 40.8115 20 39.1463 20ZM21.0208 22.4168H39.1463C39.4799 22.4168 39.7505 22.6874 39.7505 23.0211V31.5992L35.9334 27.1451C35.5285 26.6703 34.9424 26.4165 34.3129 26.4021C33.687 26.4056 33.0997 26.6835 32.6986 27.1646L28.2106 32.5513L26.7485 31.0928C25.9221 30.2664 24.5771 30.2664 23.7518 31.0928L20.4168 34.4267V23.0211C20.4168 22.6874 20.6874 22.4168 21.0208 22.4168Z" fill="#9AA5B1"/>
</g>
</svg>
