<svg width="60" height="60" viewBox="0 0 60 60" fill="none" xmlns="http://www.w3.org/2000/svg">
<circle cx="30" cy="30" r="29.5" fill="white" stroke="#ECF1F8"/>
<path d="M16.1363 41.5056H21.1211V29.3997L14 24.0588V39.3693C14 40.5514 14.9578 41.5056 16.1363 41.5056Z" fill="#4285F4"/>
<path d="M38.2119 41.5056H43.1966C44.3788 41.5056 45.333 40.5478 45.333 39.3693V24.0588L38.2119 29.3997" fill="#34A853"/>
<path d="M38.2119 20.1424V29.3999L45.333 24.059V21.2106C45.333 18.5686 42.3172 17.0625 40.2058 18.647" fill="#FBBC04"/>
<path d="M21.1212 29.3996V20.1421L29.6665 26.5511L38.2119 20.1421V29.3996L29.6665 35.8086" fill="#EA4335"/>
<path d="M14 21.2108V24.0593L21.1211 29.4001V20.1426L19.1272 18.6472C17.0122 17.0628 14 18.5689 14 21.2108Z" fill="#C5221F"/>
</svg>
