<svg width="60" height="60" viewBox="0 0 60 60" fill="none" xmlns="http://www.w3.org/2000/svg">
<circle cx="30" cy="30" r="29.5" fill="white" stroke="#ECF1F8"/>
<g clip-path="url(#clip0)">
<path d="M30 13.3333C20.6125 13.3333 13.3334 20.2124 13.3334 29.4999C13.3334 34.3583 15.325 38.5583 18.5667 41.4583C18.8375 41.6999 19.0042 42.0416 19.0125 42.4083L19.1042 45.3749C19.1334 46.3208 20.1084 46.9374 20.975 46.5541L24.2834 45.0958C24.5625 44.9708 24.8792 44.9499 25.175 45.0291C26.6959 45.4458 28.3125 45.6708 30 45.6708C39.3875 45.6708 46.6667 38.7916 46.6667 29.5041C46.6667 20.2166 39.3875 13.3333 30 13.3333Z" fill="url(#paint0_radial)"/>
<path d="M19.9917 34.2291L24.8875 26.4624C25.6667 25.2249 27.3333 24.9207 28.5042 25.7957L32.4 28.7166C32.7583 28.9832 33.25 28.9832 33.6042 28.7124L38.8625 24.7207C39.5625 24.1874 40.4792 25.0291 40.0125 25.7749L35.1125 33.5374C34.3333 34.7749 32.6667 35.0791 31.4958 34.2041L27.6 31.2832C27.2417 31.0166 26.75 31.0166 26.3958 31.2874L21.1375 35.2791C20.4375 35.8124 19.5208 34.9749 19.9917 34.2291Z" fill="white"/>
</g>
<defs>
<radialGradient id="paint0_radial" cx="0" cy="0" r="1" gradientUnits="userSpaceOnUse" gradientTransform="translate(19.75 46.4851) scale(36.32)">
<stop stop-color="#0099FF"/>
<stop offset="0.6098" stop-color="#A033FF"/>
<stop offset="0.9348" stop-color="#FF5280"/>
<stop offset="1" stop-color="#FF7061"/>
</radialGradient>
<clipPath id="clip0">
<rect width="33.3333" height="33.3333" fill="white" transform="translate(13.3334 13.3333)"/>
</clipPath>
</defs>
</svg>
