<svg width="60" height="60" viewBox="0 0 60 60" fill="none" xmlns="http://www.w3.org/2000/svg">
<circle cx="30" cy="30" r="29.5" fill="#075E54" stroke="#0F6258"/>
<g filter="url(#filter0_d)">
<path d="M22.6631 40.4009L23.199 40.6688C25.4317 42.0084 27.9324 42.6336 30.4331 42.6336C38.2925 42.6336 44.7228 36.2033 44.7228 28.3439C44.7228 24.5929 43.2046 20.9311 40.5252 18.2518C37.8459 15.5725 34.2735 14.0542 30.4331 14.0542C22.5738 14.0542 16.1434 20.4846 16.2327 28.4332C16.2327 31.1125 17.0365 33.7026 18.3762 35.9353L18.7334 36.4712L17.3045 41.7405L22.6631 40.4009Z" fill="#25D366"/>
<path d="M42.0436 16.8228C39.007 13.6969 34.8094 12 30.5225 12C21.4128 12 14.0893 19.4128 14.1786 28.4332C14.1786 31.2911 14.9824 34.0597 16.3221 36.5604L14 45.045L22.6631 42.8122C25.0745 44.1519 27.7538 44.777 30.4332 44.777C39.4536 44.777 46.777 37.3642 46.777 28.3439C46.777 23.9676 45.0801 19.8593 42.0436 16.8228ZM30.5225 42.0084C28.1111 42.0084 25.6997 41.3832 23.6456 40.1329L23.1097 39.8649L17.9297 41.2046L19.2693 36.1139L18.9121 35.578C14.9824 29.237 16.8579 20.8418 23.2883 16.9121C29.7187 12.9824 38.0246 14.8579 41.9542 21.2883C45.8839 27.7187 44.0084 36.0246 37.578 39.9543C35.5239 41.2939 33.0232 42.0084 30.5225 42.0084ZM38.3818 32.0949L37.3994 31.6484C37.3994 31.6484 35.9704 31.0232 35.0773 30.5766C34.988 30.5766 34.8987 30.4873 34.8094 30.4873C34.5415 30.4873 34.3628 30.5766 34.1842 30.6659C34.1842 30.6659 34.0949 30.7552 32.8446 32.1842C32.7552 32.3628 32.5766 32.4522 32.398 32.4522H32.3087C32.2194 32.4522 32.0408 32.3628 31.9515 32.2735L31.5049 32.0949C30.5225 31.6484 29.6294 31.1125 28.9149 30.398C28.7363 30.2194 28.4683 30.0408 28.2897 29.8621C27.6645 29.237 27.0394 28.5225 26.5928 27.7187L26.5035 27.5401C26.4142 27.4508 26.4142 27.3614 26.3249 27.1828C26.3249 27.0042 26.3249 26.8256 26.4142 26.7363C26.4142 26.7363 26.7714 26.2897 27.0394 26.0218C27.218 25.8432 27.3073 25.5752 27.4859 25.3966C27.6645 25.1287 27.7538 24.7714 27.6645 24.5035C27.5752 24.0569 26.5035 21.6456 26.2356 21.1097C26.0569 20.8418 25.8783 20.7524 25.6104 20.6631H24.628C24.4494 20.6631 24.2707 20.7524 24.0921 20.7524L24.0028 20.8418C23.8242 20.9311 23.6456 21.1097 23.4669 21.199C23.2883 21.3776 23.199 21.5562 23.0204 21.7349C22.3952 22.5387 22.038 23.5211 22.038 24.5035C22.038 25.218 22.2166 25.9325 22.4845 26.5576L22.5738 26.8256C23.3776 28.5225 24.4494 30.0408 25.8783 31.3804L26.2356 31.7377C26.5035 32.0056 26.7714 32.1842 26.9501 32.4522C28.8256 34.0597 30.969 35.2208 33.3804 35.846C33.6484 35.9353 34.0056 35.9353 34.2735 36.0246H35.1666C35.6132 36.0246 36.1491 35.846 36.5063 35.6673C36.7742 35.4887 36.9529 35.4887 37.1315 35.3101L37.3101 35.1315C37.4887 34.9529 37.6673 34.8635 37.846 34.6849C38.0246 34.5063 38.2032 34.3277 38.2925 34.1491C38.4711 33.7918 38.5604 33.3453 38.6498 32.8987V32.2735C38.6498 32.2735 38.5604 32.1842 38.3818 32.0949Z" fill="white"/>
</g>
<defs>
<filter id="filter0_d" x="11" y="11" width="38.777" height="39.045" filterUnits="userSpaceOnUse" color-interpolation-filters="sRGB">
<feFlood flood-opacity="0" result="BackgroundImageFix"/>
<feColorMatrix in="SourceAlpha" type="matrix" values="0 0 0 0 0 0 0 0 0 0 0 0 0 0 0 0 0 0 127 0"/>
<feOffset dy="2"/>
<feGaussianBlur stdDeviation="1.5"/>
<feColorMatrix type="matrix" values="0 0 0 0 0.0554688 0 0 0 0 0.295833 0 0 0 0 0.223724 0 0 0 0.54 0"/>
<feBlend mode="normal" in2="BackgroundImageFix" result="effect1_dropShadow"/>
<feBlend mode="normal" in="SourceGraphic" in2="effect1_dropShadow" result="shape"/>
</filter>
</defs>
</svg>
